<svg id="Layer_1" data-name="Layer 1" xmlns="http://www.w3.org/2000/svg" width="126.33mm" height="102.58mm"
     viewBox="0 0 358.1 290.78">
  <defs>
    <style>.cls-1{fill:#26a9e0;}.cls-2{fill:#fff;}</style>
  </defs>
  <g id="Layer_2" data-name="Layer 2">
    <g id="Layer_1-2" data-name="Layer 1-2">
      <polygon class="cls-1"
               points="43.5 41.5 39.6 41.5 32.5 45 33.6 50.4 37.6 48.5 37.6 61.5 33 61.5 33 66.8 48.2 66.8 48.2 61.5 43.5 61.5 43.5 41.5"/>
      <path class="cls-1"
            d="M318.1,220.2a28.1,28.1,0,0,0-2.9.1L293.5,70a31,31,0,0,0-22.3-57.9,31.27,31.27,0,0,0-18.9,21L70.3,48.8l.1,1a31,31,0,1,0-26.1,37l13,76.2a31,31,0,1,0,24.4,57,31.62,31.62,0,0,0,8-5l199.5,48.3.1-.4a31,31,0,1,0,57.5-23.3,30.73,30.73,0,0,0-28.7-19.4Zm-7.6.9A31.53,31.53,0,0,0,300,226l-31.2-52.6A31,31,0,0,0,258.2,120l14.1-49.7a30.86,30.86,0,0,0,16.5,1ZM179.9,168.6l38.7-11.9A31,31,0,0,0,255.7,180a31.44,31.44,0,0,0,9.3-3.8l31,52.4,3.1-1.8a30.73,30.73,0,0,0-12,23.7ZM100.4,188a30.49,30.49,0,0,0-7.3-16.7l42.8-30.5,33.9,25.9Zm39.5-50.1,32.8-23.4L222.8,133a31,31,0,0,0-4.9,16.7,16.2,16.2,0,0,0,.1,2.2L175.3,165ZM64.8,74.7l102.5,37.8L136,134.9,61.8,78.2A32.69,32.69,0,0,0,64.8,74.7Zm203.1-6.2L253.6,119a24.87,24.87,0,0,0-4.7-.4A31,31,0,0,0,225.8,129l-48.4-17.9L255,55.8A31.55,31.55,0,0,0,267.9,68.5ZM248.9,176a26.3,26.3,0,1,1,26.3-26.3A26.33,26.33,0,0,1,248.9,176ZM282.3,14.8A26.3,26.3,0,1,1,256,41.1,26.33,26.33,0,0,1,282.3,14.8ZM251.5,37.9c-.1,1-.2,2.1-.2,3.2a30.19,30.19,0,0,0,1.8,10.3L172,109.2,67.5,70.6a30.54,30.54,0,0,0,3.6-14.5,22.6,22.6,0,0,0-.1-2.6ZM13.8,56.1A26.3,26.3,0,1,1,40.1,82.3h0A26.25,26.25,0,0,1,13.8,56.1ZM49,85.8a30.4,30.4,0,0,0,9-4.5l73.9,56.5L89.6,167.9a30.89,30.89,0,0,0-20.1-7.5,28.56,28.56,0,0,0-7.7,1Zm20.5,132a26.3,26.3,0,1,1,26.3-26.3A26.33,26.33,0,0,1,69.5,217.8ZM93.6,211a31.27,31.27,0,0,0,6.8-18.1l74-22.7,113.2,86.6c0,.4.2.8.2,1.2Zm224.5,66.5a26.3,26.3,0,1,1,26.3-26.3h0A26.33,26.33,0,0,1,318.1,277.5Z"/>
      <path class="cls-1"
            d="M322.8,246.1a8.77,8.77,0,0,0-4.2-1.1,9.08,9.08,0,0,0-2.3.3,6.94,6.94,0,0,0-1.3.5l.6-3.8h10.2v-5.1H311.5l-1.5,11,2.6,3.4a17.38,17.38,0,0,1,1.9-1,8,8,0,0,1,3-.6,4.55,4.55,0,0,1,2,.5,4.36,4.36,0,0,1,1.4,1.3,3.86,3.86,0,0,1,0,3.8,3,3,0,0,1-1.4,1.3,4.55,4.55,0,0,1-2,.5,6.71,6.71,0,0,1-2.8-.6,9.34,9.34,0,0,1-2.7-2.2l-3.2,3.6a11,11,0,0,0,3.8,3.3,11.21,11.21,0,0,0,9.9-.1,8.48,8.48,0,0,0,3.4-3.1,8.67,8.67,0,0,0,1.3-4.4,9.56,9.56,0,0,0-1.1-4.4A9.67,9.67,0,0,0,322.8,246.1Z"/>
      <path class="cls-1"
            d="M283.5,37.7c-.5.6-.9,1.2-1.4,1.7l-1.3,1.5-7.2,8,1.2,2.9h17.1V46.5h-9.3l3.2-3.4c.7-.8,1.4-1.6,1.9-2.3a24.26,24.26,0,0,0,1.4-2,6.63,6.63,0,0,0,.9-1.9,8.45,8.45,0,0,0,.5-1.7,7.77,7.77,0,0,0,.2-1.6,6.48,6.48,0,0,0-1.1-3.8,6.71,6.71,0,0,0-2.8-2.5,9.12,9.12,0,0,0-7.9,0,10.76,10.76,0,0,0-3.2,2.4,11.75,11.75,0,0,0-2.1,3.6l4.5,2.4a22.47,22.47,0,0,1,1.2-2.1,8.64,8.64,0,0,1,1.4-1.3,2.93,2.93,0,0,1,1.6-.4,4,4,0,0,1,1.5.3,2.36,2.36,0,0,1,.9.8,2.66,2.66,0,0,1,.3,1.2,4.71,4.71,0,0,1-.4,1.6A11.78,11.78,0,0,1,283.5,37.7Z"/>
      <path class="cls-1"
            d="M255.4,135.3h-4.9l-12.7,15.3,2.4,4.7h9.3v5.1h5.8v-5.1h4.1v-4.9h-4.1V135.3Zm-10.7,15,4.9-6v6Z"/>
      <path class="cls-1"
            d="M76.3,188.4a9,9,0,0,0-2.6-1.7,8,8,0,0,0-2.1-.5l6.4-6.8-1.1-2.3H61.6v5.1l8,.2-5.3,5.7,1.3,3.5c.4-.2.9-.4,1.4-.6a5,5,0,0,1,1.3-.3,5.48,5.48,0,0,1,3.1.3,3,3,0,0,1,1.3,1.2,3.13,3.13,0,0,1,.4,1.9,3.45,3.45,0,0,1-.5,1.8,3.64,3.64,0,0,1-3.1,1.8,5.82,5.82,0,0,1-1.9-.3,6.19,6.19,0,0,1-1.7-1.1,10,10,0,0,1-1.6-2L60,197.2a12.37,12.37,0,0,0,4.1,4.4,10.67,10.67,0,0,0,5.3,1.3,10.05,10.05,0,0,0,4.8-1.2,9.19,9.19,0,0,0,3.4-3.1,8.67,8.67,0,0,0,1.3-4.4,8.15,8.15,0,0,0-.6-3.1A12.6,12.6,0,0,0,76.3,188.4Z"/>
    </g>
  </g>
  <path class="cls-2"
        d="M29.55,191a39.92,39.92,0,0,0,79,7.93,7.57,7.57,0,0,1-1.11,1.29,10.86,10.86,0,0,1-3.53,2.37,10.77,10.77,0,0,1-8.34,0A10.92,10.92,0,0,1,92,200.24,11.39,11.39,0,0,1,89.79,197,21.33,21.33,0,0,1,48.08,191v-.85A9.44,9.44,0,0,0,45.4,184a9.26,9.26,0,0,0-4.63-2.54,9.38,9.38,0,0,0-5.27.41,9.26,9.26,0,0,0-5.95,8.2v.39A1.37,1.37,0,0,0,29.55,191Z"/>
  <path class="cls-2"
        d="M109.45,190a39.92,39.92,0,0,0-79-7.93,7.14,7.14,0,0,1,1.11-1.28,10.86,10.86,0,0,1,7.7-3.22A10.81,10.81,0,0,1,47,180.76,11.21,11.21,0,0,1,49.21,184,21.33,21.33,0,0,1,90.92,190v.85A9.44,9.44,0,0,0,93.6,197a9.27,9.27,0,0,0,15.85-6.07v-.39A1.37,1.37,0,0,0,109.45,190Z"/>
  <path class="cls-1"
        d="M41.62,219.12a39.92,39.92,0,0,0,61.46-50.25,7.41,7.41,0,0,1,.13,1.69,10.92,10.92,0,0,1-.81,4.18,11.09,11.09,0,0,1-2.36,3.54,10.91,10.91,0,0,1-7.72,3.17,11.16,11.16,0,0,1-3.91-.74A21.33,21.33,0,0,1,54.73,206l-.61-.6a9.42,9.42,0,0,0-6.26-2.47,9.27,9.27,0,0,0-8.51,5.49,9.35,9.35,0,0,0-.69,5.24,9.21,9.21,0,0,0,2.28,4.77l.28.28A1.52,1.52,0,0,0,41.62,219.12Z"/>
  <path class="cls-1"
        d="M97.38,161.87a39.92,39.92,0,0,0-61.46,50.25,7.33,7.33,0,0,1-.13-1.69A10.8,10.8,0,0,1,39,202.72a10.8,10.8,0,0,1,7.72-3.17,11.15,11.15,0,0,1,3.91.73A21.33,21.33,0,0,1,84.27,175l.61.6a9.43,9.43,0,0,0,6.26,2.48,9.29,9.29,0,0,0,6.92-15.51l-.28-.27A1.56,1.56,0,0,0,97.38,161.87Z"/>
  <path class="cls-2"
        d="M.15,56.32a39.92,39.92,0,0,0,79,7.93A7.57,7.57,0,0,1,78,65.54a10.86,10.86,0,0,1-3.53,2.37,10.77,10.77,0,0,1-8.34,0,10.92,10.92,0,0,1-3.52-2.37,11.39,11.39,0,0,1-2.25-3.29,21.33,21.33,0,0,1-41.71-5.93v-.85A9.44,9.44,0,0,0,16,49.29a9.26,9.26,0,0,0-4.63-2.54,9.38,9.38,0,0,0-5.27.41,9.26,9.26,0,0,0-5.95,8.2v.39A1.37,1.37,0,0,0,.15,56.32Z"/>
  <path class="cls-2"
        d="M80.05,55.27a39.92,39.92,0,0,0-79-7.93,7.14,7.14,0,0,1,1.11-1.28,10.86,10.86,0,0,1,7.7-3.22,10.81,10.81,0,0,1,7.69,3.22,11.21,11.21,0,0,1,2.25,3.28,21.33,21.33,0,0,1,41.71,5.93v.85A9.44,9.44,0,0,0,64.2,62.3a9.27,9.27,0,0,0,15.85-6.07v-.39A1.37,1.37,0,0,0,80.05,55.27Z"/>
  <path class="cls-1"
        d="M12.22,84.42A39.92,39.92,0,0,0,73.68,34.17a7.41,7.41,0,0,1,.13,1.69A10.92,10.92,0,0,1,73,40a11.09,11.09,0,0,1-2.36,3.54,10.91,10.91,0,0,1-7.72,3.17A11.16,11.16,0,0,1,59,46a21.33,21.33,0,0,1-33.68,25.3l-.61-.6a9.42,9.42,0,0,0-6.26-2.47A9.27,9.27,0,0,0,10,73.73,9.35,9.35,0,0,0,9.26,79a9.21,9.21,0,0,0,2.28,4.77l.28.28A1.52,1.52,0,0,0,12.22,84.42Z"/>
  <path class="cls-1"
        d="M68,27.17A39.92,39.92,0,0,0,6.52,77.42a7.33,7.33,0,0,1-.13-1.69A10.8,10.8,0,0,1,9.56,68a10.8,10.8,0,0,1,7.72-3.17,11.15,11.15,0,0,1,3.91.73,21.33,21.33,0,0,1,33.68-25.3l.61.6a9.43,9.43,0,0,0,6.26,2.48,9.29,9.29,0,0,0,6.92-15.51l-.28-.27A1.56,1.56,0,0,0,68,27.17Z"/>
  <path class="cls-2"
        d="M242.8,40.81a39.92,39.92,0,0,0,79,7.92A7.57,7.57,0,0,1,320.68,50a10.79,10.79,0,0,1-7.7,3.21A10.75,10.75,0,0,1,305.29,50,11.12,11.12,0,0,1,303,46.73a21.33,21.33,0,0,1-41.71-5.92V40a9.43,9.43,0,0,0-2.68-6.17,9.27,9.27,0,0,0-15.85,6.07v.39A1.37,1.37,0,0,0,242.8,40.81Z"/>
  <path class="cls-2"
        d="M322.7,39.75a39.92,39.92,0,0,0-79-7.92,7.57,7.57,0,0,1,1.11-1.29,10.79,10.79,0,0,1,7.7-3.21,10.75,10.75,0,0,1,7.69,3.21,11.25,11.25,0,0,1,2.25,3.29,21.33,21.33,0,0,1,41.71,5.92v.86a9.46,9.46,0,0,0,2.68,6.18,9.27,9.27,0,0,0,15.85-6.07v-.4A1.37,1.37,0,0,0,322.7,39.75Z"/>
  <path class="cls-1"
        d="M254.87,68.9a39.92,39.92,0,0,0,61.46-50.25,7.46,7.46,0,0,1,.13,1.7,10.8,10.8,0,0,1-3.17,7.71,11,11,0,0,1-3.54,2.36,10.84,10.84,0,0,1-4.18.81,11.38,11.38,0,0,1-3.91-.73A21.33,21.33,0,0,1,268,55.8l-.61-.6a9.43,9.43,0,0,0-6.26-2.48,9.3,9.3,0,0,0-8.51,5.5,9.32,9.32,0,0,0-.69,5.24,9.22,9.22,0,0,0,2.28,4.76l.28.28A1.39,1.39,0,0,0,254.87,68.9Z"/>
  <path class="cls-1"
        d="M310.63,11.66a39.92,39.92,0,0,0-61.46,50.25,7.41,7.41,0,0,1-.13-1.69,10.84,10.84,0,0,1,.81-4.18,10.85,10.85,0,0,1,5.9-5.9,10.84,10.84,0,0,1,4.18-.81,11.38,11.38,0,0,1,3.91.73,21.33,21.33,0,0,1,33.68-25.3l.61.61a9.47,9.47,0,0,0,6.26,2.47,9.28,9.28,0,0,0,6.92-15.5l-.28-.28A1.39,1.39,0,0,0,310.63,11.66Z"/>
  <path class="cls-2"
        d="M209.65,148.82a39.92,39.92,0,0,0,79,7.93,7.57,7.57,0,0,1-1.11,1.29,10.86,10.86,0,0,1-3.53,2.37,10.77,10.77,0,0,1-8.34,0,10.92,10.92,0,0,1-3.52-2.37,11.39,11.39,0,0,1-2.25-3.29,21.33,21.33,0,0,1-41.71-5.93V148a9.44,9.44,0,0,0-2.68-6.18,9.26,9.26,0,0,0-4.63-2.54,9.38,9.38,0,0,0-5.27.41,9.26,9.26,0,0,0-5.95,8.2v.39A1.37,1.37,0,0,0,209.65,148.82Z"/>
  <path class="cls-2"
        d="M289.55,147.77a39.92,39.92,0,0,0-79-7.93,7.14,7.14,0,0,1,1.11-1.28,10.86,10.86,0,0,1,7.7-3.22,10.81,10.81,0,0,1,7.69,3.22,11.21,11.21,0,0,1,2.25,3.28A21.33,21.33,0,0,1,271,147.77v.85a9.44,9.44,0,0,0,2.68,6.18,9.27,9.27,0,0,0,15.85-6.07v-.39A1.37,1.37,0,0,0,289.55,147.77Z"/>
  <path class="cls-1"
        d="M221.72,176.92a39.92,39.92,0,0,0,61.46-50.25,7.41,7.41,0,0,1,.13,1.69,10.92,10.92,0,0,1-.81,4.18,11.09,11.09,0,0,1-2.36,3.54,10.91,10.91,0,0,1-7.72,3.17,11.16,11.16,0,0,1-3.91-.74,21.33,21.33,0,0,1-33.68,25.3l-.61-.6a9.42,9.42,0,0,0-6.26-2.47,9.27,9.27,0,0,0-8.51,5.49,9.35,9.35,0,0,0-.69,5.24,9.21,9.21,0,0,0,2.28,4.77l.28.28A1.52,1.52,0,0,0,221.72,176.92Z"/>
  <path class="cls-1"
        d="M277.48,119.67A39.92,39.92,0,0,0,216,169.92a7.33,7.33,0,0,1-.13-1.69,10.8,10.8,0,0,1,3.17-7.71,10.8,10.8,0,0,1,7.72-3.17,11.15,11.15,0,0,1,3.91.73,21.33,21.33,0,0,1,33.68-25.3l.61.6a9.43,9.43,0,0,0,6.26,2.48,9.29,9.29,0,0,0,6.92-15.51l-.28-.27A1.56,1.56,0,0,0,277.48,119.67Z"/>
  <path class="cls-2"
        d="M278.05,251A39.92,39.92,0,0,0,357,259a7.57,7.57,0,0,1-1.11,1.29,10.86,10.86,0,0,1-3.53,2.37,10.77,10.77,0,0,1-8.34,0,10.92,10.92,0,0,1-3.52-2.37,11.39,11.39,0,0,1-2.25-3.29A21.33,21.33,0,0,1,296.58,251v-.85A9.44,9.44,0,0,0,293.9,244a9.26,9.26,0,0,0-4.63-2.54,9.38,9.38,0,0,0-5.27.41,9.26,9.26,0,0,0-5.95,8.2v.39A1.37,1.37,0,0,0,278.05,251Z"/>
  <path class="cls-2"
        d="M358,250A39.92,39.92,0,0,0,279,242a7.14,7.14,0,0,1,1.11-1.28,10.86,10.86,0,0,1,7.7-3.22,10.81,10.81,0,0,1,7.69,3.22,11.21,11.21,0,0,1,2.25,3.28A21.33,21.33,0,0,1,339.42,250v.85A9.44,9.44,0,0,0,342.1,257,9.27,9.27,0,0,0,358,250.93v-.39A1.37,1.37,0,0,0,358,250Z"/>
  <path class="cls-1"
        d="M290.12,279.12a39.92,39.92,0,0,0,61.46-50.25,7.41,7.41,0,0,1,.13,1.69,10.92,10.92,0,0,1-.81,4.18,11.09,11.09,0,0,1-2.36,3.54,10.91,10.91,0,0,1-7.72,3.17,11.16,11.16,0,0,1-3.91-.74A21.33,21.33,0,0,1,303.23,266l-.61-.6a9.42,9.42,0,0,0-6.26-2.47,9.27,9.27,0,0,0-8.51,5.49,9.35,9.35,0,0,0-.69,5.24,9.21,9.21,0,0,0,2.28,4.77l.28.28A1.52,1.52,0,0,0,290.12,279.12Z"/>
  <path class="cls-1"
        d="M345.88,221.87a39.92,39.92,0,0,0-61.46,50.25,7.33,7.33,0,0,1-.13-1.69,10.8,10.8,0,0,1,3.17-7.71,10.8,10.8,0,0,1,7.72-3.17,11.15,11.15,0,0,1,3.91.73A21.33,21.33,0,0,1,332.77,235l.61.6a9.43,9.43,0,0,0,6.26,2.48,9.29,9.29,0,0,0,6.92-15.51l-.28-.27A1.56,1.56,0,0,0,345.88,221.87Z"/>
</svg>
