<?xml version="1.0" encoding="utf-8"?>
<!-- Generator: Adobe Illustrator 24.1.2, SVG Export Plug-In . SVG Version: 6.00 Build 0)  -->
<svg version="1.1" id="Layer_1" xmlns="http://www.w3.org/2000/svg" xmlns:xlink="http://www.w3.org/1999/xlink" x="0px"
     y="0px"
     viewBox="0 0 340.2 272.2" style="enable-background:new 0 0 340.2 272.2;" xml:space="preserve">
<g id="Layer_2_1_">
	<g id="Layer_1-2">
		<polygon
      points="34.5,31.5 30.6,31.5 23.5,35 24.6,40.4 28.6,38.5 28.6,51.5 24,51.5 24,56.8 39.2,56.8 39.2,51.5 34.5,51.5 		"/>
    <path d="M309.1,210.2c-1,0-1.9,0-2.9,0.1L284.5,60c16-6.1,24-24.1,17.8-40.1s-24.1-24-40.1-17.8c-9.3,3.6-16.3,11.4-18.9,21
			l-182,15.7l0.1,1C58,23,41.6,12.1,24.8,15.6S-2.8,35.5,0.6,52.3c3,14.4,15.7,24.8,30.4,24.8c1.4,0,2.9-0.1,4.3-0.3L48.3,153
			c-15.8,6.8-23,25-16.3,40.7s25,23,40.7,16.3c2.9-1.3,5.6-2.9,8-5l199.5,48.3l0.1-0.4c6.5,15.9,24.6,23.5,40.4,17.1
			c15.9-6.5,23.5-24.6,17.1-40.4C333.1,217.8,321.8,210.2,309.1,210.2L309.1,210.2z M301.5,211.1c-3.8,1-7.3,2.6-10.5,4.9
			l-31.2-52.6c13.1-11,14.9-30.6,3.9-43.7c-3.8-4.5-8.8-7.9-14.5-9.7l14.1-49.7c5.3,1.8,11,2.2,16.5,1L301.5,211.1z M170.9,158.6
			l38.7-11.9c3.8,16.7,20.4,27.1,37.1,23.3c3.3-0.8,6.4-2,9.3-3.8l31,52.4l3.1-1.8c-7.4,5.7-11.8,14.4-12,23.7L170.9,158.6z
			 M91.4,178c-0.7-6.2-3.2-12-7.3-16.7l42.8-30.5l33.9,25.9L91.4,178z M130.9,127.9l32.8-23.4l50.1,18.5c-3.2,5-4.9,10.8-4.9,16.7
			c0,0.7,0,1.5,0.1,2.2L166.3,155L130.9,127.9z M55.8,64.7l102.5,37.8L127,124.9L52.8,68.2C53.9,67.1,54.9,65.9,55.8,64.7z
			 M258.9,58.5L244.6,109c-1.6-0.3-3.1-0.4-4.7-0.4c-8.8,0-17.2,3.8-23.1,10.4l-48.4-17.9L246,45.8C249,51.2,253.5,55.7,258.9,58.5z
			 M239.9,166c-14.5,0-26.3-11.8-26.3-26.3c0-14.5,11.8-26.3,26.3-26.3c14.5,0,26.3,11.8,26.3,26.3C266.2,154.2,254.4,166,239.9,166
			z M273.3,4.8c14.5,0,26.3,11.8,26.3,26.3s-11.8,26.3-26.3,26.3c-14.5,0-26.3-11.8-26.3-26.3C247.1,16.5,258.8,4.8,273.3,4.8z
			 M242.5,27.9c-0.1,1-0.2,2.1-0.2,3.2c0,3.5,0.6,7,1.8,10.3L163,99.2L58.5,60.6c2.4-4.5,3.6-9.4,3.6-14.5c0-0.9,0-1.7-0.1-2.6
			L242.5,27.9z M4.8,46.1c0-14.5,11.8-26.3,26.3-26.3s26.3,11.8,26.3,26.3S45.6,72.3,31.1,72.3l0,0C16.6,72.3,4.8,60.6,4.8,46.1z
			 M40,75.8c3.2-1,6.3-2.5,9-4.5l73.9,56.5l-42.3,30.1c-5.6-4.8-12.7-7.5-20.1-7.5c-2.6,0-5.2,0.3-7.7,1L40,75.8z M60.5,207.8
			c-14.5,0-26.3-11.8-26.3-26.3c0-14.5,11.8-26.3,26.3-26.3c14.5,0,26.3,11.8,26.3,26.3C86.8,196,75,207.7,60.5,207.8z M84.6,201
			c4.1-5.1,6.5-11.5,6.8-18.1l74-22.7l113.2,86.6c0,0.4,0.2,0.8,0.2,1.2L84.6,201z M309.1,267.5c-14.5,0-26.3-11.8-26.3-26.3
			c0-14.5,11.8-26.3,26.3-26.3c14.5,0,26.3,11.8,26.3,26.3c0,0,0,0,0,0C335.4,255.7,323.6,267.5,309.1,267.5z"/>
    <path d="M313.8,236.1c-1.3-0.7-2.7-1.1-4.2-1.1c-0.8,0-1.5,0.1-2.3,0.3c-0.4,0.1-0.9,0.3-1.3,0.5l0.6-3.8h10.2v-5.1h-14.3l-1.5,11
			l2.6,3.4c0.6-0.4,1.3-0.7,1.9-1c1-0.4,2-0.6,3-0.6c0.7,0,1.4,0.2,2,0.5c0.6,0.3,1,0.8,1.4,1.3c0.3,0.6,0.5,1.2,0.5,1.9
			c0,0.7-0.2,1.3-0.5,1.9c-0.3,0.6-0.8,1-1.4,1.3c-0.6,0.3-1.3,0.5-2,0.5c-1,0-1.9-0.2-2.8-0.6c-1-0.5-1.9-1.3-2.7-2.2l-3.2,3.6
			c1,1.4,2.3,2.5,3.8,3.3c1.6,0.8,3.3,1.2,5.1,1.1c1.7,0,3.3-0.4,4.8-1.2c1.4-0.7,2.6-1.8,3.4-3.1c0.8-1.3,1.3-2.9,1.3-4.4
			c0-1.5-0.4-3.1-1.1-4.4C316.1,237.8,315.1,236.8,313.8,236.1z"/>
    <path d="M274.5,27.7c-0.5,0.6-0.9,1.2-1.4,1.7l-1.3,1.5l-7.2,8l1.2,2.9h17.1v-5.3h-9.3l3.2-3.4c0.7-0.8,1.4-1.6,1.9-2.3
			c0.5-0.7,1-1.3,1.4-2c0.4-0.6,0.7-1.2,0.9-1.9c0.2-0.5,0.4-1.1,0.5-1.7c0.1-0.5,0.2-1,0.2-1.6c0-1.3-0.3-2.7-1.1-3.8
			c-0.7-1.1-1.7-2-2.8-2.5c-2.5-1.2-5.4-1.2-7.9,0c-1.2,0.6-2.3,1.4-3.2,2.4c-0.9,1-1.6,2.3-2.1,3.6l4.5,2.4
			c0.3-0.7,0.8-1.4,1.2-2.1c0.4-0.5,0.9-0.9,1.4-1.3c0.5-0.3,1-0.4,1.6-0.4c0.5,0,1,0.1,1.5,0.3c0.4,0.2,0.7,0.5,0.9,0.8
			c0.2,0.4,0.3,0.8,0.3,1.2c0,0.5-0.2,1.1-0.4,1.6C275.3,26.5,274.9,27.1,274.5,27.7z"/>
    <path d="M246.4,125.3h-4.9l-12.7,15.3l2.4,4.7h9.3v5.1h5.8v-5.1h4.1v-4.9h-4.1V125.3z M235.7,140.3l4.9-6v6H235.7z"/>
    <path d="M67.3,178.4c-0.8-0.7-1.6-1.3-2.6-1.7c-0.7-0.3-1.4-0.4-2.1-0.5l6.4-6.8l-1.1-2.3H52.6v5.1l8,0.2l-5.3,5.7l1.3,3.5
			c0.4-0.2,0.9-0.4,1.4-0.6c0.4-0.1,0.8-0.3,1.3-0.3c0.4-0.1,0.8-0.1,1.1-0.1c0.7,0,1.4,0.1,2,0.4c0.5,0.2,1,0.7,1.3,1.2
			c0.3,0.6,0.5,1.2,0.4,1.9c0,0.7-0.2,1.3-0.5,1.8c-0.3,0.5-0.8,1-1.3,1.3c-0.6,0.3-1.2,0.5-1.8,0.5c-0.7,0-1.3-0.1-1.9-0.3
			c-0.6-0.3-1.2-0.6-1.7-1.1c-0.6-0.6-1.2-1.3-1.6-2l-4.3,2.9c1,1.8,2.4,3.3,4.1,4.4c1.6,0.9,3.4,1.3,5.3,1.3c1.7,0,3.3-0.4,4.8-1.2
			c1.4-0.7,2.5-1.8,3.4-3.1c0.8-1.3,1.3-2.9,1.3-4.4c0-1.1-0.2-2.1-0.6-3.1C68.6,179.9,68,179.1,67.3,178.4z"/>
	</g>
</g>
</svg>
