<svg id="Layer_1" data-name="Layer 1" xmlns="http://www.w3.org/2000/svg" width="121.19mm" height="113.06mm"
     viewBox="0 0 343.52 320.49">
  <defs>
    <style>.cls-1{fill:#d32f2f;}.cls-2{fill:#26a9e0;}.cls-3{fill:#fff;}</style>
  </defs>
  <path class="cls-1"
        d="M160.07,0a31.2,31.2,0,1,0,31.2,31.2A31.24,31.24,0,0,0,160.07,0Zm0,57.3a26.1,26.1,0,1,1,26.1-26.1h0A26.12,26.12,0,0,1,160.07,57.3Z"/>
  <polygon class="cls-1"
           points="147.67 19.3 151.67 19.3 151.67 17.4 147.67 17.4 146.47 17.4 145.47 17.4 145.47 26.4 147.67 26.4 147.67 22.9 151.17 22.9 151.17 21.1 147.67 21.1 147.67 19.3"/>
  <path class="cls-1"
        d="M153.67,26.4l.6-1.7h3.3l.6,1.7h2.2l-3.5-9h-1.8l-3.6,9Zm1.7-4.6a1.42,1.42,0,0,1,.2-.6,1.42,1.42,0,0,0,.2-.6l.2-.5a.76.76,0,0,0,.2.5l.2.6.2.6L157,23h-2.1Z"/>
  <polygon class="cls-1"
           points="166.67 24.5 165.17 24.5 165.17 19.2 166.67 19.2 166.67 17.4 161.47 17.4 161.47 19.2 162.97 19.2 162.97 24.5 161.47 24.5 161.47 26.4 166.67 26.4 166.67 24.5"/>
  <polygon class="cls-1" points="174.97 24.4 170.97 24.4 170.97 17.4 168.77 17.4 168.77 26.4 174.97 26.4 174.97 24.4"/>
  <path class="cls-1" d="M147.47,35v3.5l-4.2-5.7h-1.7v9h2.1V36.2l4.2,5.6h2v-9h-2.3V35Z"/>
  <path class="cls-1"
        d="M159.37,33.9a5.6,5.6,0,0,0-1.5-1,4.75,4.75,0,0,0-3.7,0,3.07,3.07,0,0,0-1.5,1,4,4,0,0,0-1,1.5,5.85,5.85,0,0,0-.4,1.9,4.33,4.33,0,0,0,.4,1.9,4.6,4.6,0,0,0,2.5,2.5,5.82,5.82,0,0,0,1.9.3,5.23,5.23,0,0,0,1.8-.3,6,6,0,0,0,1.5-.9,4,4,0,0,0,1-1.5,4.75,4.75,0,0,0,0-3.7A6.93,6.93,0,0,0,159.37,33.9Zm-1.1,4.4a2.1,2.1,0,0,1-1.3,1.3,2.12,2.12,0,0,1-1.9,0,2.1,2.1,0,0,1-1.3-1.3,3.59,3.59,0,0,1-.2-1.1,4.25,4.25,0,0,1,.2-1.1,2.1,2.1,0,0,1,1.3-1.3,3.08,3.08,0,0,1,1.9,0,2.1,2.1,0,0,1,1.3,1.3,3.13,3.13,0,0,1,0,2.2Z"/>
  <path class="cls-1"
        d="M169.37,34.1a4.19,4.19,0,0,0-1.4-.9,5.66,5.66,0,0,0-1.8-.3h-3.8v9h3.8a5.66,5.66,0,0,0,1.8-.3,3.92,3.92,0,0,0,2.3-2.3,5.55,5.55,0,0,0,0-3.6A3.54,3.54,0,0,0,169.37,34.1Zm-1.2,4.3a2.18,2.18,0,0,1-.5.8,3,3,0,0,1-.7.5,3,3,0,0,1-1,.2h-1.5V34.8h1.6a3.55,3.55,0,0,1,1,.2,1.79,1.79,0,0,1,.7.5,2.18,2.18,0,0,1,.5.8,3,3,0,0,1-.1,2.1Z"/>
  <polygon class="cls-1"
           points="174.37 39.9 174.37 38.1 177.97 38.1 177.97 36.3 174.37 36.3 174.37 34.7 178.57 34.7 178.57 32.8 172.27 32.8 172.27 41.8 178.67 41.8 178.67 39.9 174.37 39.9"/>
  <path class="cls-2"
        d="M63.77,93.4A30.6,30.6,0,0,0,59.67,78l59.7-30.3-2.5,7.6,6.1-3.1,3.6-10.9-10.9-3.4-6.1,3.1,7.6,2.5L56.87,74a31,31,0,1,0-4.8,43.6,31.59,31.59,0,0,0,11.7-24.2Zm-57.4,0a26.3,26.3,0,1,1,26.3,26.3A26.33,26.33,0,0,1,6.37,93.4Z"/>
  <polygon class="cls-2"
           points="25.67 98.9 25.67 104.2 40.87 104.2 40.87 98.9 36.17 98.9 36.17 78.9 32.27 78.9 25.17 82.4 26.17 87.8 30.27 85.9 30.27 98.9 25.67 98.9"/>
  <path class="cls-2"
        d="M310.77,257.5h-1.5l-19.2-136.9,6.4,4.8-.9-6.8-9.1-6.8-6.9,9.1.9,6.8,4.8-6.4,19.2,136.9a30.63,30.63,0,1,0,6.3-.7Zm0,57.4a26.3,26.3,0,1,1,26.3-26.3A26.33,26.33,0,0,1,310.77,314.9Z"/>
  <path class="cls-2"
        d="M315.47,283.5a8.77,8.77,0,0,0-4.2-1.1,9.08,9.08,0,0,0-2.3.3,5,5,0,0,0-1.3.5l.6-3.8h10.2v-5.1h-14.3l-1.5,11,2.6,3.4a17.38,17.38,0,0,1,1.9-1,8.8,8.8,0,0,1,1.5-.5,7.57,7.57,0,0,1,1.5-.1,4.55,4.55,0,0,1,2,.5,4.36,4.36,0,0,1,1.4,1.3,3.86,3.86,0,0,1,0,3.8,3,3,0,0,1-1.4,1.3,4.55,4.55,0,0,1-2,.5,6.71,6.71,0,0,1-2.8-.6,9.34,9.34,0,0,1-2.7-2.2l-3.2,3.5a11,11,0,0,0,3.8,3.3,11.21,11.21,0,0,0,9.9-.1,9.19,9.19,0,0,0,3.4-3.1,8.67,8.67,0,0,0,1.3-4.4,9.56,9.56,0,0,0-1.1-4.4A9.33,9.33,0,0,0,315.47,283.5Z"/>
  <path class="cls-2"
        d="M306,78.5a31.05,31.05,0,1,0-62.1-.1,30.33,30.33,0,0,0,1.8,10.4L93,196.8l1.4-7.9-5.6,4-1.9,11.2,11.3,1.9,5.6-4-7.9-1.4L247.67,93.3A31,31,0,0,0,306,78.5Zm-31,26.2a26.3,26.3,0,1,1,26.3-26.3h0A26.33,26.33,0,0,1,275,104.7Z"/>
  <path class="cls-2"
        d="M278.27,80.4c.7-.8,1.4-1.6,1.9-2.3a15.34,15.34,0,0,0,1.4-2.1,7.57,7.57,0,0,0,.9-1.8,8.45,8.45,0,0,0,.5-1.7,7.77,7.77,0,0,0,.2-1.6,6.48,6.48,0,0,0-1.1-3.8,7.47,7.47,0,0,0-2.8-2.5,9,9,0,0,0-4-.9,9.34,9.34,0,0,0-4,.9,9.61,9.61,0,0,0-3.2,2.5,13.06,13.06,0,0,0-2.1,3.6l4.5,2.4a22.47,22.47,0,0,1,1.2-2.1,8.64,8.64,0,0,1,1.4-1.3,2.93,2.93,0,0,1,1.6-.4,4,4,0,0,1,1.5.3,2.36,2.36,0,0,1,.9.8,2.77,2.77,0,0,1,.3,1.3,4.71,4.71,0,0,1-.4,1.6,9.91,9.91,0,0,1-1.1,1.7c-.5.6-.9,1.2-1.4,1.7s-.9,1.1-1.3,1.5l-7.3,8.1,1.2,2.9h17.1V83.9h-9.3Z"/>
  <path class="cls-2"
        d="M238.17,159.4a31,31,0,0,0-31,31,14.77,14.77,0,0,0,.1,2.1l-100,27.9,4-7-6.6,1.9-5.6,10,9.9,5.6,6.6-1.8-7.1-4,99.4-27.7a31,31,0,1,0,30.3-38Zm0,57.3a26.3,26.3,0,1,1,26.3-26.3,26.33,26.33,0,0,1-26.3,26.3Z"/>
  <path class="cls-2" d="M244.57,176.1h-4.9L227,191.4l2.4,4.7h9.3v5.1h5.8V196h4.1v-5h-4.1V176.1Zm-10.6,15,4.9-6v6Z"/>
  <path class="cls-2"
        d="M62.17,197.8a28.56,28.56,0,0,0-7.7,1l-11.2-63.4,6.6,4.6-1.2-6.8-9.4-6.5-6.6,9.3,1.2,6.8,4.6-6.6,11.4,64.1a31.17,31.17,0,1,0,12.3-2.5Zm0,57.3a26.3,26.3,0,1,1,26.3-26.3v.1A26.31,26.31,0,0,1,62.17,255.1Z"/>
  <path class="cls-2"
        d="M68.87,225.7a9,9,0,0,0-2.6-1.7,8,8,0,0,0-2.1-.5l6.4-6.8-1.1-2.3H54.17v5.1l8,.2-5.3,5.8,1.3,3.5c.4-.2.9-.4,1.4-.6a6.11,6.11,0,0,1,1.3-.3,5.48,5.48,0,0,1,3.1.3,2.5,2.5,0,0,1,1.3,1.2,3.13,3.13,0,0,1,.4,1.9,3.45,3.45,0,0,1-.5,1.8,4,4,0,0,1-1.3,1.3,3.92,3.92,0,0,1-1.8.4,5.82,5.82,0,0,1-1.9-.3,6.19,6.19,0,0,1-1.7-1.1,10,10,0,0,1-1.6-2l-4.3,2.8a12.37,12.37,0,0,0,4.1,4.4,10.67,10.67,0,0,0,5.3,1.3,11.25,11.25,0,0,0,4.8-1.1,9.19,9.19,0,0,0,3.4-3.1,8.67,8.67,0,0,0,1.3-4.4,8.15,8.15,0,0,0-.6-3.1A9.49,9.49,0,0,0,68.87,225.7Z"/>
  <path class="cls-3"
        d="M.12,92.5A32.6,32.6,0,0,0,64.62,99a6.41,6.41,0,0,1-.9,1,8.84,8.84,0,0,1-12.57,0,9.19,9.19,0,0,1-1.84-2.69A17.42,17.42,0,0,1,15.25,92.5v-.69a7.71,7.71,0,0,0-2.18-5,7.62,7.62,0,0,0-3.79-2.07A7.52,7.52,0,0,0,5,85a7.68,7.68,0,0,0-3.43,2.63A7.56,7.56,0,0,0,.12,91.72V92A1.19,1.19,0,0,0,.12,92.5Z"/>
  <path class="cls-3"
        d="M65.37,91.64A32.59,32.59,0,0,0,.87,85.17a6,6,0,0,1,.9-1,8.84,8.84,0,0,1,12.57,0,9.28,9.28,0,0,1,1.84,2.68,17.42,17.42,0,0,1,34.06,4.84v.7a7.69,7.69,0,0,0,2.18,5,7.57,7.57,0,0,0,8.09,1.75,7.68,7.68,0,0,0,3.43-2.63,7.56,7.56,0,0,0,1.43-4.07v-.32A1.24,1.24,0,0,0,65.37,91.64Z"/>
  <path class="cls-2"
        d="M10,115.45a32.6,32.6,0,0,0,50.19-41,6.42,6.42,0,0,1,.1,1.38,8.85,8.85,0,0,1-.66,3.41A8.9,8.9,0,0,1,54.79,84a8.85,8.85,0,0,1-3.41.66,9.16,9.16,0,0,1-3.19-.6,17.42,17.42,0,0,1-27.51,20.66l-.49-.49A7.57,7.57,0,0,0,7.56,111a7.61,7.61,0,0,0,1.86,3.89l.23.23A1.29,1.29,0,0,0,10,115.45Z"/>
  <path class="cls-2"
        d="M55.51,68.7a32.6,32.6,0,0,0-50.19,41,6.37,6.37,0,0,1-.1-1.38,8.8,8.8,0,0,1,2.59-6.3,8.65,8.65,0,0,1,2.89-1.92,8.86,8.86,0,0,1,3.41-.67,9.16,9.16,0,0,1,3.19.6A17.42,17.42,0,0,1,44.81,79.4l.49.49a7.7,7.7,0,0,0,5.12,2,7.56,7.56,0,0,0,7.51-8.76,7.64,7.64,0,0,0-1.86-3.9L55.84,69A1.29,1.29,0,0,0,55.51,68.7Z"/>
  <path class="cls-3"
        d="M29.4,227.68a32.59,32.59,0,0,0,64.5,6.47,5.67,5.67,0,0,1-.9,1,9.11,9.11,0,0,1-2.88,2,8.87,8.87,0,0,1-6.81,0,9,9,0,0,1-4.72-4.63,17.42,17.42,0,0,1-34.06-4.84V227a7.57,7.57,0,0,0-6-7.11,7.56,7.56,0,0,0-9.16,7v.32A1.24,1.24,0,0,0,29.4,227.68Z"/>
  <path class="cls-3"
        d="M94.65,226.82a32.6,32.6,0,0,0-64.51-6.47,6.13,6.13,0,0,1,.91-1,9,9,0,0,1,2.88-2,8.87,8.87,0,0,1,6.81,0A9,9,0,0,1,45.45,222a17.42,17.42,0,0,1,34.06,4.84v.7a7.75,7.75,0,0,0,2.19,5,7.62,7.62,0,0,0,3.79,2.07,7.57,7.57,0,0,0,7.72-2.95,7.6,7.6,0,0,0,1.44-4.07v-.32A1.24,1.24,0,0,0,94.65,226.82Z"/>
  <path class="cls-2"
        d="M39.26,250.62a32.6,32.6,0,0,0,50.19-41,6.42,6.42,0,0,1,.1,1.38,8.83,8.83,0,0,1-8.89,8.89,9.26,9.26,0,0,1-3.2-.6A17.42,17.42,0,0,1,50,239.92l-.49-.49a7.7,7.7,0,0,0-5.12-2,7.5,7.5,0,0,0-4.14,1.21,7.58,7.58,0,0,0-1.51,11.45l.23.22A1.15,1.15,0,0,0,39.26,250.62Z"/>
  <path class="cls-2"
        d="M84.79,203.88a32.6,32.6,0,0,0-50.19,41,5.84,5.84,0,0,1-.1-1.38,8.83,8.83,0,0,1,8.88-8.89,9.17,9.17,0,0,1,3.2.6,17.42,17.42,0,0,1,27.51-20.66l.49.49a7.7,7.7,0,0,0,5.11,2,7.57,7.57,0,0,0,5.65-12.66l-.22-.22A1.15,1.15,0,0,0,84.79,203.88Z"/>
  <path class="cls-3"
        d="M206.6,189.83a32.6,32.6,0,0,0,64.51,6.47,6.13,6.13,0,0,1-.91,1,9,9,0,0,1-2.88,2,8.87,8.87,0,0,1-6.81,0,9,9,0,0,1-4.71-4.63,17.42,17.42,0,0,1-34.06-4.84v-.7a7.75,7.75,0,0,0-2.19-5,7.62,7.62,0,0,0-3.79-2.07A7.57,7.57,0,0,0,208,185,7.6,7.6,0,0,0,206.6,189v.32A1.24,1.24,0,0,0,206.6,189.83Z"/>
  <path class="cls-3"
        d="M271.85,189a32.59,32.59,0,0,0-64.5-6.47,5.67,5.67,0,0,1,.9-1.05,9.11,9.11,0,0,1,2.88-1.95,8.87,8.87,0,0,1,6.81,0,9,9,0,0,1,4.72,4.63A17.42,17.42,0,0,1,256.72,189v.7a7.57,7.57,0,0,0,6,7.11,7.56,7.56,0,0,0,9.16-7v-.32A1.24,1.24,0,0,0,271.85,189Z"/>
  <path class="cls-2"
        d="M216.46,212.77a32.6,32.6,0,0,0,50.19-41,5.84,5.84,0,0,1,.1,1.38,8.83,8.83,0,0,1-8.88,8.89,9.17,9.17,0,0,1-3.2-.6,17.42,17.42,0,0,1-27.51,20.66l-.49-.49a7.7,7.7,0,0,0-5.11-2,7.57,7.57,0,0,0-5.65,12.66l.22.22A1.15,1.15,0,0,0,216.46,212.77Z"/>
  <path class="cls-2"
        d="M262,166a32.6,32.6,0,0,0-50.19,41,6.42,6.42,0,0,1-.1-1.38,8.83,8.83,0,0,1,8.89-8.89,9.26,9.26,0,0,1,3.2.6,17.42,17.42,0,0,1,27.5-20.66l.49.49a7.7,7.7,0,0,0,5.12,2A7.5,7.5,0,0,0,261,178a7.58,7.58,0,0,0,1.51-11.45l-.23-.22A1.15,1.15,0,0,0,262,166Z"/>
  <path class="cls-3"
        d="M242.35,77.84a32.6,32.6,0,0,0,64.5,6.48,6.41,6.41,0,0,1-.9,1.05A8.83,8.83,0,0,1,299.66,88a8.83,8.83,0,0,1-6.28-2.62,9.19,9.19,0,0,1-1.84-2.69,17.42,17.42,0,0,1-34.06-4.84v-.69a7.67,7.67,0,0,0-2.19-5.05A7.59,7.59,0,0,0,251.51,70a7.57,7.57,0,0,0-9.16,7v.32A1.19,1.19,0,0,0,242.35,77.84Z"/>
  <path class="cls-3"
        d="M307.6,77a32.6,32.6,0,0,0-64.51-6.47,6.54,6.54,0,0,1,.91-1.05,8.84,8.84,0,0,1,12.57,0,9.24,9.24,0,0,1,1.83,2.68A17.42,17.42,0,0,1,292.46,77v.7a7.75,7.75,0,0,0,2.19,5,7.58,7.58,0,0,0,13-5v-.32A1.24,1.24,0,0,0,307.6,77Z"/>
  <path class="cls-2"
        d="M252.21,100.79a32.6,32.6,0,0,0,50.19-41,6.42,6.42,0,0,1,.1,1.38A8.83,8.83,0,0,1,293.61,70a9.26,9.26,0,0,1-3.2-.6,17.42,17.42,0,0,1-27.5,20.66l-.49-.49a7.7,7.7,0,0,0-5.12-2,7.58,7.58,0,0,0-5.65,12.66l.23.23A1.29,1.29,0,0,0,252.21,100.79Z"/>
  <path class="cls-2"
        d="M297.74,54a32.6,32.6,0,0,0-50.19,41,5.8,5.8,0,0,1-.1-1.38,8.84,8.84,0,0,1,2.58-6.3,8.69,8.69,0,0,1,2.9-1.92,8.85,8.85,0,0,1,3.4-.67,9.17,9.17,0,0,1,3.2.6A17.42,17.42,0,0,1,287,64.74l.49.49a7.7,7.7,0,0,0,5.11,2,7.57,7.57,0,0,0,5.65-12.66l-.22-.22A1.29,1.29,0,0,0,297.74,54Z"/>
  <path class="cls-3"
        d="M278.15,288a32.59,32.59,0,0,0,64.5,6.47,5.67,5.67,0,0,1-.9,1.05,9.11,9.11,0,0,1-2.88,1.95,8.87,8.87,0,0,1-6.81,0,9,9,0,0,1-4.72-4.63A17.42,17.42,0,0,1,293.28,288v-.7a7.57,7.57,0,0,0-6-7.11,7.56,7.56,0,0,0-9.16,7v.32A1.24,1.24,0,0,0,278.15,288Z"/>
  <path class="cls-3"
        d="M343.4,287.17a32.6,32.6,0,0,0-64.51-6.47,6.13,6.13,0,0,1,.91-1.05,9,9,0,0,1,2.88-1.95,8.87,8.87,0,0,1,6.81,0,9,9,0,0,1,4.71,4.63,17.42,17.42,0,0,1,34.06,4.84v.7a7.75,7.75,0,0,0,2.19,5,7.62,7.62,0,0,0,3.79,2.07,7.57,7.57,0,0,0,7.72-3A7.6,7.6,0,0,0,343.4,288v-.32A1.24,1.24,0,0,0,343.4,287.17Z"/>
  <path class="cls-2"
        d="M288,311a32.6,32.6,0,0,0,50.19-41,6.42,6.42,0,0,1,.1,1.38,8.83,8.83,0,0,1-8.89,8.89,9.26,9.26,0,0,1-3.2-.6,17.42,17.42,0,0,1-27.5,20.66l-.49-.49a7.7,7.7,0,0,0-5.12-2A7.5,7.5,0,0,0,289,299a7.58,7.58,0,0,0-1.51,11.45l.23.22A1.15,1.15,0,0,0,288,311Z"/>
  <path class="cls-2"
        d="M333.54,264.23a32.6,32.6,0,0,0-50.19,41,5.84,5.84,0,0,1-.1-1.38,8.83,8.83,0,0,1,8.88-8.89,9.17,9.17,0,0,1,3.2.6,17.42,17.42,0,0,1,27.51-20.66l.49.49a7.7,7.7,0,0,0,5.11,2,7.57,7.57,0,0,0,5.65-12.66l-.22-.22A1.15,1.15,0,0,0,333.54,264.23Z"/>
</svg>
