<?xml version="1.0" encoding="utf-8"?>
<!-- Generator: Adobe Illustrator 24.1.2, SVG Export Plug-In . SVG Version: 6.00 Build 0)  -->
<svg version="1.1" id="Layer_1" xmlns="http://www.w3.org/2000/svg" xmlns:xlink="http://www.w3.org/1999/xlink" x="0px"
     y="0px"
     viewBox="0 0 340.2 319.6" style="enable-background:new 0 0 340.2 319.6;" xml:space="preserve">
<style type="text/css">
	.st0{fill:#FF0000;}
</style>
  <g id="Layer_2_1_">
	<g id="Layer_1-2">
		<path class="st0" d="M158.4,0c-17.2,0-31.2,14-31.2,31.2s14,31.2,31.2,31.2s31.2-14,31.2-31.2C189.6,14,175.6,0,158.4,0z
			 M158.4,57.3c-14.4,0-26.1-11.7-26.1-26.1c0-14.4,11.7-26.1,26.1-26.1c14.4,0,26.1,11.7,26.1,26.1c0,0,0,0,0,0
			C184.5,45.6,172.8,57.3,158.4,57.3z"/>
    <polygon class="st0" points="146,19.3 150,19.3 150,17.4 146,17.4 144.8,17.4 143.8,17.4 143.8,26.4 146,26.4 146,22.9
			149.5,22.9 149.5,21.1 146,21.1 		"/>
    <path class="st0" d="M152,26.4l0.6-1.7h3.3l0.6,1.7h2.2l-3.5-9h-1.8l-3.6,9H152z M153.7,21.8c0-0.2,0.1-0.4,0.2-0.6
			c0.1-0.2,0.2-0.4,0.2-0.6l0.2-0.5c0,0.2,0.1,0.4,0.2,0.5l0.2,0.6l0.2,0.6l0.4,1.2h-2.1L153.7,21.8z"/>
    <polygon class="st0" points="165,24.5 163.5,24.5 163.5,19.2 165,19.2 165,17.4 159.8,17.4 159.8,19.2 161.3,19.2 161.3,24.5
			159.8,24.5 159.8,26.4 165,26.4 		"/>
    <polygon class="st0" points="173.3,24.4 169.3,24.4 169.3,17.4 167.1,17.4 167.1,26.4 173.3,26.4 		"/>
    <path class="st0" d="M145.8,35v1c0,0.3,0,0.6,0,0.8v0.7c0,0.3,0,0.5,0,0.8s0,0.1,0,0.2l-4.2-5.7h-1.7v9h2.1v-3c0-0.2,0-0.4,0-0.6
			c0-0.2,0-0.4,0-0.5s0-0.4,0-0.6s0-0.5,0-0.8v-0.1l4.2,5.6h2v-9h-2.3V35z"/>
    <path class="st0" d="M157.7,33.9c-0.4-0.4-0.9-0.7-1.5-1c-1.2-0.5-2.5-0.5-3.7,0c-0.6,0.2-1.1,0.5-1.5,1c-0.4,0.4-0.8,0.9-1,1.5
			c-0.2,0.6-0.4,1.2-0.4,1.9c0,0.6,0.1,1.3,0.4,1.9c0.2,0.6,0.6,1.1,1,1.5c0.4,0.4,0.9,0.8,1.5,1c0.6,0.2,1.2,0.3,1.9,0.3
			c0.6,0,1.3-0.1,1.8-0.3c0.5-0.2,1-0.5,1.5-0.9c0.4-0.4,0.8-0.9,1-1.5c0.5-1.2,0.5-2.5,0-3.7C158.4,34.9,158.1,34.4,157.7,33.9z
			 M156.6,38.3c-0.1,0.3-0.3,0.6-0.5,0.8c-0.2,0.2-0.5,0.4-0.8,0.5c-0.6,0.3-1.3,0.3-1.9,0c-0.3-0.1-0.6-0.3-0.8-0.5
			c-0.2-0.2-0.4-0.5-0.5-0.8c-0.1-0.3-0.2-0.7-0.2-1.1c0-0.4,0.1-0.7,0.2-1.1c0.1-0.3,0.3-0.6,0.5-0.8c0.2-0.2,0.5-0.4,0.8-0.5
			c0.6-0.2,1.3-0.2,1.9,0c0.3,0.1,0.6,0.3,0.8,0.5c0.2,0.2,0.4,0.5,0.5,0.8c0.1,0.3,0.2,0.7,0.2,1.1C156.8,37.6,156.7,38,156.6,38.3
			z"/>
    <path class="st0" d="M167.7,34.1c-0.4-0.4-0.9-0.7-1.4-0.9c-0.6-0.2-1.2-0.3-1.8-0.3h-3.8v9h3.8c0.6,0,1.2-0.1,1.8-0.3
			c0.5-0.2,1-0.5,1.4-0.9c0.4-0.4,0.7-0.9,0.9-1.4c0.4-1.2,0.4-2.5,0-3.6C168.4,35,168.1,34.5,167.7,34.1z M166.5,38.4
			c-0.1,0.3-0.3,0.6-0.5,0.8c-0.2,0.2-0.5,0.4-0.7,0.5c-0.3,0.1-0.6,0.2-1,0.2h-1.5v-5.1h1.6c0.3,0,0.7,0.1,1,0.2
			c0.3,0.1,0.5,0.3,0.7,0.5c0.2,0.2,0.4,0.5,0.5,0.8C166.8,37,166.8,37.7,166.5,38.4L166.5,38.4z"/>
    <polygon class="st0" points="172.7,39.9 172.7,38.1 176.3,38.1 176.3,36.3 172.7,36.3 172.7,34.7 176.9,34.7 176.9,32.8
			170.6,32.8 170.6,41.8 177,41.8 177,39.9 		"/>
    <path d="M62.1,93.4c0-5.4-1.4-10.8-4.1-15.4l59.7-30.3l-2.5,7.6l6.1-3.1l3.6-10.9L114,37.9l-6.1,3.1l7.6,2.5L55.2,74
			C44.6,60.6,25,58.4,11.7,69.1s-15.6,30.2-4.9,43.6s30.2,15.6,43.6,4.9C57.7,111.7,62,102.8,62.1,93.4L62.1,93.4z M4.7,93.4
			c0-14.5,11.8-26.3,26.3-26.3s26.3,11.8,26.3,26.3S45.5,119.7,31,119.7C16.5,119.7,4.8,107.9,4.7,93.4z"/>
    <polygon points="24,98.9 24,104.2 39.2,104.2 39.2,98.9 34.5,98.9 34.5,78.9 30.6,78.9 23.5,82.4 24.5,87.8 28.6,85.9 28.6,98.9
					"/>
    <path d="M309.1,257.5c-0.5,0-1,0-1.5,0l-19.2-136.9l6.4,4.8l-0.9-6.8l-9.1-6.8l-6.9,9.1l0.9,6.8l4.8-6.4l19.2,136.9
			c-16.8,3.4-27.6,19.8-24.2,36.6c3.4,16.8,19.8,27.6,36.6,24.2c16.8-3.4,27.6-19.8,24.2-36.6C336.6,267.9,323.9,257.6,309.1,257.5
			L309.1,257.5z M309.1,314.9c-14.5,0-26.3-11.8-26.3-26.3s11.8-26.3,26.3-26.3s26.3,11.8,26.3,26.3
			C335.3,303.1,323.6,314.8,309.1,314.9z"/>
    <path d="M313.8,283.5c-1.3-0.7-2.7-1.1-4.2-1.1c-0.8,0-1.5,0.1-2.3,0.3c-0.5,0.1-0.9,0.3-1.3,0.5l0.6-3.8h10.2v-5.1h-14.3l-1.5,11
			l2.6,3.4c0.6-0.4,1.3-0.7,1.9-1c0.5-0.2,1-0.4,1.5-0.5c0.5-0.1,1-0.1,1.5-0.1c0.7,0,1.4,0.2,2,0.5c0.6,0.3,1,0.8,1.4,1.3
			c0.3,0.6,0.5,1.2,0.5,1.9c0,0.7-0.2,1.3-0.5,1.9c-0.3,0.6-0.8,1-1.4,1.3c-0.6,0.3-1.3,0.5-2,0.5c-1,0-1.9-0.2-2.8-0.6
			c-1-0.5-1.9-1.3-2.7-2.2l-3.2,3.5c1,1.4,2.3,2.5,3.8,3.3c1.6,0.8,3.3,1.2,5.1,1.1c1.7,0,3.3-0.4,4.8-1.2c1.4-0.7,2.5-1.8,3.4-3.1
			c0.8-1.3,1.3-2.9,1.3-4.4c0-1.5-0.4-3.1-1.1-4.4C316.1,285.2,315.1,284.1,313.8,283.5z"/>
    <path d="M304.3,78.5c0-17.1-13.8-31.1-31-31.1c-17.1,0-31.1,13.8-31.1,31c0,3.6,0.6,7.1,1.8,10.4l-152.7,108l1.4-7.9l-5.6,4
			l-1.9,11.2l11.3,1.9l5.6-4l-7.9-1.4L246,93.3c8.1,15.1,27,20.7,42.1,12.6C298.1,100.4,304.3,89.9,304.3,78.5L304.3,78.5z
			 M273.3,104.7c-14.5,0-26.3-11.8-26.3-26.3s11.8-26.3,26.3-26.3c14.5,0,26.3,11.8,26.3,26.3c0,0,0,0,0,0
			C299.5,93,287.8,104.7,273.3,104.7z"/>
    <path d="M276.6,80.4c0.7-0.8,1.4-1.6,1.9-2.3c0.5-0.7,1-1.3,1.4-2.1c0.4-0.6,0.7-1.2,0.9-1.8c0.2-0.5,0.4-1.1,0.5-1.7
			c0.1-0.5,0.2-1,0.2-1.6c0-1.3-0.3-2.7-1.1-3.8c-0.7-1.1-1.7-1.9-2.8-2.5c-1.2-0.6-2.6-0.9-4-0.9c-1.4,0-2.7,0.3-4,0.9
			c-1.2,0.6-2.3,1.4-3.2,2.5c-0.9,1.1-1.6,2.3-2.1,3.6l4.5,2.4c0.3-0.7,0.8-1.4,1.2-2.1c0.4-0.5,0.9-0.9,1.4-1.3
			c0.5-0.3,1-0.4,1.6-0.4c0.5,0,1,0.1,1.5,0.3c0.4,0.2,0.7,0.5,0.9,0.8c0.2,0.4,0.3,0.8,0.3,1.3c0,0.5-0.2,1.1-0.4,1.6
			c-0.3,0.6-0.7,1.2-1.1,1.7c-0.5,0.6-0.9,1.2-1.4,1.7s-0.9,1.1-1.3,1.5l-7.3,8.1l1.2,2.9h17.1v-5.3h-9.3L276.6,80.4z"/>
    <path d="M236.5,159.4c-17.1,0-31,13.9-31,31c0,0.7,0,1.4,0.1,2.1l-100,27.9l4-7l-6.6,1.9l-5.6,10l9.9,5.6l6.6-1.8l-7.1-4
			l99.4-27.7c3.8,16.7,20.5,27.1,37.2,23.3s27.1-20.5,23.3-37.2C263.4,169.4,250.9,159.4,236.5,159.4z M236.5,216.7
			c-14.5,0-26.3-11.8-26.3-26.3c0-14.5,11.8-26.3,26.3-26.3s26.3,11.8,26.3,26.3C262.8,204.9,251,216.7,236.5,216.7
			C236.5,216.7,236.5,216.7,236.5,216.7L236.5,216.7z"/>
    <path d="M242.9,176.1h-4.9l-12.7,15.3l2.4,4.7h9.3v5.1h5.8V196h4.1v-5h-4.1V176.1z M232.3,191.1l4.9-6v6H232.3z"/>
    <path d="M60.5,197.8c-2.6,0-5.2,0.3-7.7,1l-11.2-63.4l6.6,4.6l-1.2-6.8l-9.4-6.5L31,136l1.2,6.8l4.6-6.6l11.4,64.1
			c-15.7,6.8-23,25-16.2,40.8s25,23,40.8,16.2c15.7-6.8,23-25,16.2-40.8C84.1,205.1,72.9,197.8,60.5,197.8z M60.5,255.1
			c-14.5,0-26.3-11.8-26.3-26.3s11.8-26.3,26.3-26.3s26.3,11.8,26.3,26.3c0,0,0,0,0,0.1C86.7,243.4,75,255.1,60.5,255.1z"/>
    <path d="M67.2,225.7c-0.8-0.7-1.6-1.3-2.6-1.7c-0.7-0.3-1.4-0.4-2.1-0.5l6.4-6.8l-1.1-2.3H52.5v5.1l8,0.2l-5.3,5.8l1.3,3.5
			c0.4-0.2,0.9-0.4,1.4-0.6c0.4-0.1,0.9-0.3,1.3-0.3c0.4-0.1,0.8-0.1,1.1-0.1c0.7,0,1.4,0.1,2,0.4c0.5,0.2,1,0.6,1.3,1.2
			c0.3,0.6,0.5,1.2,0.4,1.9c0,0.7-0.2,1.3-0.5,1.8c-0.3,0.5-0.8,1-1.3,1.3c-0.6,0.3-1.2,0.4-1.8,0.4c-0.7,0-1.3-0.1-1.9-0.3
			c-0.6-0.3-1.2-0.6-1.7-1.1c-0.6-0.6-1.2-1.3-1.6-2l-4.3,2.8c1,1.8,2.4,3.3,4.1,4.4c1.6,0.9,3.4,1.3,5.3,1.3c1.7,0,3.3-0.4,4.8-1.1
			c1.4-0.7,2.5-1.8,3.4-3.1c0.8-1.3,1.3-2.9,1.3-4.4c0-1.1-0.2-2.1-0.6-3.1C68.6,227.3,68,226.4,67.2,225.7z"/>
	</g>
</g>
</svg>
